<svg width="392" height="393" viewBox="0 0 392 393" fill="none" xmlns="http://www.w3.org/2000/svg">
<g clip-path="url(#clip0_0_1)">
<path d="M390.641 58.5246L206.643 387.545C202.844 394.338 193.084 394.378 189.228 387.618L1.5817 58.5563C-2.61913 51.1896 3.6802 42.2665 12.0281 43.7586L196.223 76.6824C197.398 76.8924 198.601 76.8904 199.776 76.6763L380.119 43.8058C388.439 42.2894 394.768 51.1434 390.641 58.5246Z" fill="url(#paint0_linear_0_1)"/>
<path d="M283.965 0.574396L147.801 27.2552C145.563 27.6937 143.906 29.5903 143.771 31.8664L135.395 173.33C135.198 176.662 138.258 179.248 141.51 178.498L179.42 169.749C182.967 168.931 186.172 172.055 185.443 175.622L174.18 230.775C173.422 234.487 176.907 237.661 180.532 236.56L203.947 229.446C207.577 228.344 211.065 231.527 210.297 235.242L192.398 321.875C191.278 327.294 198.486 330.249 201.492 325.603L203.5 322.5L314.454 101.072C316.312 97.3645 313.108 93.137 309.036 93.9228L270.014 101.454C266.347 102.161 263.227 98.746 264.262 95.1583L289.731 6.86689C290.767 3.27314 287.636 -0.144823 283.965 0.574396Z" fill="url(#paint1_linear_0_1)"/>
<circle cx="102" cy="117" r="25" fill="white"/>
<circle cx="95.5" cy="112.5" r="12.5" fill="black"/>
<circle cx="90.5" cy="107.5" r="3.5" fill="white"/>
<circle cx="171" cy="117" r="25" fill="white"/>
<circle cx="164.5" cy="112.5" r="12.5" fill="black"/>
<circle cx="159.5" cy="107.5" r="3.5" fill="white"/>
</g>
<defs>
<linearGradient id="paint0_linear_0_1" x1="-2.99982" y1="31.9999" x2="226" y2="343" gradientUnits="userSpaceOnUse">
<stop stop-color="#41D1FF"/>
<stop offset="1" stop-color="#BD34FE"/>
</linearGradient>
<linearGradient id="paint1_linear_0_1" x1="185.651" y1="7.81818" x2="227.076" y2="291.989" gradientUnits="userSpaceOnUse">
<stop stop-color="#FFEA83"/>
<stop offset="0.0833333" stop-color="#FFDD35"/>
<stop offset="1" stop-color="#FFA800"/>
</linearGradient>
<clipPath id="clip0_0_1">
<rect width="392" height="393" fill="white"/>
</clipPath>
</defs>
</svg>
